<svg width="24" height="24" viewBox="0 0 24 24" fill="none" xmlns="http://www.w3.org/2000/svg">
  <path d="M17.5 2C19.5 2 21 3.5 21 5.5C21 7.5 19.5 9 17.5 9C15.5 9 14 7.5 14 5.5C14 3.5 15.5 2 17.5 2ZM6.5 2C8.5 2 10 3.5 10 5.5C10 7.5 8.5 9 6.5 9C4.5 9 3 7.5 3 5.5C3 3.5 4.5 2 6.5 2ZM12 8C14 8 15.5 9.5 15.5 11.5C15.5 13.5 14 15 12 15C10 15 8.5 13.5 8.5 11.5C8.5 9.5 10 8 12 8ZM12 17C14 17 15.5 18.5 15.5 20.5C15.5 22.5 14 24 12 24C10 24 8.5 22.5 8.5 20.5C8.5 18.5 10 17 12 17Z" fill="currentColor"/>
</svg>